<svg width="128" height="160" viewBox="0 0 128 160" fill="none" xmlns="http://www.w3.org/2000/svg">
<g id="Group 1">
<path id="Vector 14" d="M69.4227 52.0908C69.4227 48.3283 69.9692 44.1556 68.9939 40.511C66.8999 32.6861 56.9065 28.4029 50.0694 26.0363C41.2967 22.9995 33.3104 21.916 24.0685 22.1763C17.5906 22.3588 12.2103 28.2022 8.68234 33.2736C0.825725 44.5675 2.60523 61.4729 7.66374 73.3205C12.6084 84.9015 22.8121 93.0533 32.9678 99.9648C52.9602 113.571 73.4166 126.084 92.5824 140.869" stroke="#FF5555" stroke-width="6" stroke-linecap="round"/>
<path id="Vector 15" d="M69.4229 49.1959C69.4229 40.654 69.4229 32.1121 69.4229 23.5702C69.4229 12.9135 75.1542 8.57623 84.8626 5.02105C98.039 0.195874 112.381 5.25069 119.066 17.405C123.274 25.0566 124.012 35.4391 124.373 43.9421C124.87 55.6058 123.48 67.5993 118.262 78.199C111.786 91.353 103.106 103.296 95.4774 115.78C87.565 128.727 83.51 141.265 81.0027 156.309" stroke="#FF5555" stroke-width="6" stroke-linecap="round"/>
</g>
</svg>
